# xmcd
#
# Track frame offsets: 
#        150
#        13390
#        27330
#        39537
#        50497
#        64100
#        78112
#        89765
#        103490
#        120762
#        134995
#        148872
#        159317
#        171322
#
# Disc length: 2544 seconds
#
# Revision: 0
# Processed by: cddbd v1.5PL3 Copyright (c) Steve Scherf et al.
# Submitted via: ExactAudioCopy v0.95a3
#
DISCID=ca09ee0e
DTITLE=Various Artist - Best Of Country Music CD-2
DYEAR=2000
DGENRE=Country
TTITLE0=Merle Haggard - To All The Girls I'Ve Loved Before
TTITLE1=Willie Nelson - My Heroes Have Alway Been Cowboys
TTITLE2=Frankie Laine - High Noon (Do Not Forsake Me)
TTITLE3=Michael Murphy - Wild Bird
TTITLE4=Billy Swan - I Can Help
TTITLE5=George Jones - The Grand Tour
TTITLE6=Charlie Rich - Most Beautiful Girl
TTITLE7=Lester Flatt and Earl Scruggs - Dueling Banjos
TTITLE8=Dr. Hook - Sylvia's Mother
TTITLE9=Lynn Anderson - Cry
TTITLE10=Barbara Fairchild - The Teddy Bear Song
TTITLE11=Kris - Help Me Make It Trough The Night
TTITLE12=Tammy Wynette - Stand By Your Man
TTITLE13=Marty Robbins - El Pasqo
EXTD=
EXTT0=
EXTT1=
EXTT2=
EXTT3=
EXTT4=
EXTT5=
EXTT6=
EXTT7=
EXTT8=
EXTT9=
EXTT10=
EXTT11=
EXTT12=
EXTT13=
PLAYORDER=
